<mxfile host="app.diagrams.net" agent="Mozilla/5.0 (Windows NT 10.0; Win64; x64; rv:139.0) Gecko/20100101 Firefox/139.0" version="27.1.4">
  <diagram name="Page-1" id="1obYR7CRznuvn3wxZ2J3">
    <mxGraphModel dx="1130" dy="747" grid="1" gridSize="10" guides="1" tooltips="1" connect="1" arrows="1" fold="1" page="1" pageScale="1" pageWidth="850" pageHeight="1100" math="0" shadow="0">
      <root>
        <mxCell id="0" />
        <mxCell id="1" parent="0" />
        <mxCell id="Wm3naC7xGtfdv_Gi9V7X-1" value="Start" style="ellipse;whiteSpace=wrap;html=1;" parent="1" vertex="1">
          <mxGeometry x="376" y="20" width="120" height="60" as="geometry" />
        </mxCell>
        <mxCell id="SjJ99Vo2uQfso_Y1eYd1-6" style="edgeStyle=orthogonalEdgeStyle;rounded=0;orthogonalLoop=1;jettySize=auto;html=1;exitX=1;exitY=1;exitDx=0;exitDy=0;entryX=0.5;entryY=0;entryDx=0;entryDy=0;" parent="1" source="SjJ99Vo2uQfso_Y1eYd1-1" target="SjJ99Vo2uQfso_Y1eYd1-3" edge="1">
          <mxGeometry relative="1" as="geometry">
            <Array as="points">
              <mxPoint x="463" y="260" />
              <mxPoint x="580" y="260" />
            </Array>
          </mxGeometry>
        </mxCell>
        <mxCell id="SjJ99Vo2uQfso_Y1eYd1-7" value="nein" style="edgeLabel;html=1;align=center;verticalAlign=middle;resizable=0;points=[];" parent="SjJ99Vo2uQfso_Y1eYd1-6" vertex="1" connectable="0">
          <mxGeometry x="0.1073" y="1" relative="1" as="geometry">
            <mxPoint x="-11" y="-19" as="offset" />
          </mxGeometry>
        </mxCell>
        <mxCell id="SjJ99Vo2uQfso_Y1eYd1-60" value="ja" style="edgeStyle=orthogonalEdgeStyle;rounded=0;orthogonalLoop=1;jettySize=auto;html=1;entryX=0.5;entryY=0;entryDx=0;entryDy=0;" parent="1" source="SjJ99Vo2uQfso_Y1eYd1-1" target="SjJ99Vo2uQfso_Y1eYd1-58" edge="1">
          <mxGeometry relative="1" as="geometry" />
        </mxCell>
        <mxCell id="SjJ99Vo2uQfso_Y1eYd1-1" value="Ist Repository lokal vorhanden?" style="rhombus;whiteSpace=wrap;html=1;" parent="1" vertex="1">
          <mxGeometry x="360" y="120" width="152" height="80" as="geometry" />
        </mxCell>
        <mxCell id="SjJ99Vo2uQfso_Y1eYd1-49" style="edgeStyle=orthogonalEdgeStyle;rounded=0;orthogonalLoop=1;jettySize=auto;html=1;entryX=0.5;entryY=0;entryDx=0;entryDy=0;" parent="1" source="SjJ99Vo2uQfso_Y1eYd1-2" target="SjJ99Vo2uQfso_Y1eYd1-40" edge="1">
          <mxGeometry relative="1" as="geometry" />
        </mxCell>
        <mxCell id="SjJ99Vo2uQfso_Y1eYd1-2" value="Download objects and refs from origin repository" style="rounded=0;whiteSpace=wrap;html=1;" parent="1" vertex="1">
          <mxGeometry x="199.5" y="444.5" width="120" height="60" as="geometry" />
        </mxCell>
        <mxCell id="SjJ99Vo2uQfso_Y1eYd1-28" value="" style="edgeStyle=orthogonalEdgeStyle;rounded=0;orthogonalLoop=1;jettySize=auto;html=1;" parent="1" source="SjJ99Vo2uQfso_Y1eYd1-3" target="SjJ99Vo2uQfso_Y1eYd1-23" edge="1">
          <mxGeometry relative="1" as="geometry" />
        </mxCell>
        <mxCell id="SjJ99Vo2uQfso_Y1eYd1-3" value="Origin Repository klonen with HTTP" style="rounded=0;whiteSpace=wrap;html=1;" parent="1" vertex="1">
          <mxGeometry x="520" y="280" width="120" height="60" as="geometry" />
        </mxCell>
        <mxCell id="SjJ99Vo2uQfso_Y1eYd1-9" value="git clone &amp;lt;repository&amp;gt; &amp;lt;directory&amp;gt;" style="text;html=1;align=center;verticalAlign=middle;whiteSpace=wrap;rounded=0;" parent="1" vertex="1">
          <mxGeometry x="650" y="295" width="90" height="30" as="geometry" />
        </mxCell>
        <mxCell id="SjJ99Vo2uQfso_Y1eYd1-13" value="" style="edgeStyle=orthogonalEdgeStyle;rounded=0;orthogonalLoop=1;jettySize=auto;html=1;" parent="1" source="SjJ99Vo2uQfso_Y1eYd1-10" target="SjJ99Vo2uQfso_Y1eYd1-12" edge="1">
          <mxGeometry relative="1" as="geometry" />
        </mxCell>
        <mxCell id="SjJ99Vo2uQfso_Y1eYd1-10" value="username" style="shape=parallelogram;perimeter=parallelogramPerimeter;whiteSpace=wrap;html=1;fixedSize=1;" parent="1" vertex="1">
          <mxGeometry x="620" y="510" width="120" height="60" as="geometry" />
        </mxCell>
        <mxCell id="SjJ99Vo2uQfso_Y1eYd1-29" style="edgeStyle=orthogonalEdgeStyle;rounded=0;orthogonalLoop=1;jettySize=auto;html=1;entryX=0.5;entryY=0;entryDx=0;entryDy=0;" parent="1" source="SjJ99Vo2uQfso_Y1eYd1-12" target="SjJ99Vo2uQfso_Y1eYd1-17" edge="1">
          <mxGeometry relative="1" as="geometry" />
        </mxCell>
        <mxCell id="SjJ99Vo2uQfso_Y1eYd1-12" value="password" style="shape=parallelogram;perimeter=parallelogramPerimeter;whiteSpace=wrap;html=1;fixedSize=1;" parent="1" vertex="1">
          <mxGeometry x="620" y="630" width="120" height="60" as="geometry" />
        </mxCell>
        <mxCell id="SjJ99Vo2uQfso_Y1eYd1-32" value="" style="edgeStyle=orthogonalEdgeStyle;rounded=0;orthogonalLoop=1;jettySize=auto;html=1;exitX=1;exitY=1;exitDx=0;exitDy=0;" parent="1" source="SjJ99Vo2uQfso_Y1eYd1-17" target="SjJ99Vo2uQfso_Y1eYd1-31" edge="1">
          <mxGeometry relative="1" as="geometry" />
        </mxCell>
        <mxCell id="SjJ99Vo2uQfso_Y1eYd1-54" value="yes" style="edgeLabel;html=1;align=center;verticalAlign=middle;resizable=0;points=[];" parent="SjJ99Vo2uQfso_Y1eYd1-32" vertex="1" connectable="0">
          <mxGeometry x="0.2649" y="1" relative="1" as="geometry">
            <mxPoint as="offset" />
          </mxGeometry>
        </mxCell>
        <mxCell id="SjJ99Vo2uQfso_Y1eYd1-52" style="edgeStyle=orthogonalEdgeStyle;rounded=0;orthogonalLoop=1;jettySize=auto;html=1;exitX=0;exitY=0.5;exitDx=0;exitDy=0;entryX=1;entryY=0.5;entryDx=0;entryDy=0;" parent="1" source="SjJ99Vo2uQfso_Y1eYd1-17" target="SjJ99Vo2uQfso_Y1eYd1-58" edge="1">
          <mxGeometry relative="1" as="geometry" />
        </mxCell>
        <mxCell id="SjJ99Vo2uQfso_Y1eYd1-53" value="no" style="edgeLabel;html=1;align=center;verticalAlign=middle;resizable=0;points=[];" parent="SjJ99Vo2uQfso_Y1eYd1-52" vertex="1" connectable="0">
          <mxGeometry x="-0.1543" y="-2" relative="1" as="geometry">
            <mxPoint as="offset" />
          </mxGeometry>
        </mxCell>
        <mxCell id="SjJ99Vo2uQfso_Y1eYd1-17" value="remote access denied?" style="rhombus;whiteSpace=wrap;html=1;" parent="1" vertex="1">
          <mxGeometry x="585" y="760" width="190" height="80" as="geometry" />
        </mxCell>
        <mxCell id="SjJ99Vo2uQfso_Y1eYd1-25" style="edgeStyle=orthogonalEdgeStyle;rounded=0;orthogonalLoop=1;jettySize=auto;html=1;exitX=1;exitY=1;exitDx=0;exitDy=0;" parent="1" source="SjJ99Vo2uQfso_Y1eYd1-23" target="SjJ99Vo2uQfso_Y1eYd1-10" edge="1">
          <mxGeometry relative="1" as="geometry">
            <Array as="points">
              <mxPoint x="680" y="450" />
            </Array>
          </mxGeometry>
        </mxCell>
        <mxCell id="SjJ99Vo2uQfso_Y1eYd1-26" value="yes" style="edgeLabel;html=1;align=center;verticalAlign=middle;resizable=0;points=[];" parent="SjJ99Vo2uQfso_Y1eYd1-25" vertex="1" connectable="0">
          <mxGeometry x="0.1826" y="-1" relative="1" as="geometry">
            <mxPoint as="offset" />
          </mxGeometry>
        </mxCell>
        <mxCell id="SjJ99Vo2uQfso_Y1eYd1-34" style="edgeStyle=orthogonalEdgeStyle;rounded=0;orthogonalLoop=1;jettySize=auto;html=1;exitX=0;exitY=0.5;exitDx=0;exitDy=0;entryX=1;entryY=0.5;entryDx=0;entryDy=0;" parent="1" source="SjJ99Vo2uQfso_Y1eYd1-23" target="SjJ99Vo2uQfso_Y1eYd1-58" edge="1">
          <mxGeometry relative="1" as="geometry">
            <mxPoint x="470" y="570" as="targetPoint" />
          </mxGeometry>
        </mxCell>
        <mxCell id="SjJ99Vo2uQfso_Y1eYd1-50" value="no" style="edgeLabel;html=1;align=center;verticalAlign=middle;resizable=0;points=[];" parent="SjJ99Vo2uQfso_Y1eYd1-34" vertex="1" connectable="0">
          <mxGeometry x="-0.215" y="5" relative="1" as="geometry">
            <mxPoint x="-9" y="-15" as="offset" />
          </mxGeometry>
        </mxCell>
        <mxCell id="SjJ99Vo2uQfso_Y1eYd1-23" value="Username and password required?" style="rhombus;whiteSpace=wrap;html=1;" parent="1" vertex="1">
          <mxGeometry x="490" y="390" width="180" height="80" as="geometry" />
        </mxCell>
        <mxCell id="SjJ99Vo2uQfso_Y1eYd1-31" value="print &#39;Access denied&#39;" style="shape=parallelogram;perimeter=parallelogramPerimeter;whiteSpace=wrap;html=1;fixedSize=1;" parent="1" vertex="1">
          <mxGeometry x="680" y="880" width="160" height="60" as="geometry" />
        </mxCell>
        <mxCell id="SjJ99Vo2uQfso_Y1eYd1-35" value="origin repo: GitLab" style="text;html=1;align=center;verticalAlign=middle;whiteSpace=wrap;rounded=0;" parent="1" vertex="1">
          <mxGeometry x="20" y="20" width="135" height="30" as="geometry" />
        </mxCell>
        <mxCell id="SjJ99Vo2uQfso_Y1eYd1-36" value="target repo: Gitea" style="text;html=1;align=center;verticalAlign=middle;whiteSpace=wrap;rounded=0;" parent="1" vertex="1">
          <mxGeometry x="30" y="50" width="120" height="30" as="geometry" />
        </mxCell>
        <mxCell id="SjJ99Vo2uQfso_Y1eYd1-38" value="git fetch &amp;lt;origin remote&amp;gt;" style="text;html=1;align=center;verticalAlign=middle;whiteSpace=wrap;rounded=0;" parent="1" vertex="1">
          <mxGeometry x="100" y="459.5" width="60" height="30" as="geometry" />
        </mxCell>
        <mxCell id="SjJ99Vo2uQfso_Y1eYd1-43" style="edgeStyle=orthogonalEdgeStyle;rounded=0;orthogonalLoop=1;jettySize=auto;html=1;exitX=0;exitY=0.5;exitDx=0;exitDy=0;entryX=0.5;entryY=0;entryDx=0;entryDy=0;" parent="1" source="SjJ99Vo2uQfso_Y1eYd1-40" target="SjJ99Vo2uQfso_Y1eYd1-42" edge="1">
          <mxGeometry relative="1" as="geometry">
            <Array as="points">
              <mxPoint x="160" y="584.5" />
            </Array>
          </mxGeometry>
        </mxCell>
        <mxCell id="SjJ99Vo2uQfso_Y1eYd1-45" value="ja" style="edgeLabel;html=1;align=center;verticalAlign=middle;resizable=0;points=[];" parent="SjJ99Vo2uQfso_Y1eYd1-43" vertex="1" connectable="0">
          <mxGeometry x="-0.2145" y="-3" relative="1" as="geometry">
            <mxPoint x="-19" y="13" as="offset" />
          </mxGeometry>
        </mxCell>
        <mxCell id="SjJ99Vo2uQfso_Y1eYd1-46" value="nein" style="edgeStyle=orthogonalEdgeStyle;rounded=0;orthogonalLoop=1;jettySize=auto;html=1;exitX=1;exitY=0.5;exitDx=0;exitDy=0;entryX=0.5;entryY=0;entryDx=0;entryDy=0;" parent="1" source="SjJ99Vo2uQfso_Y1eYd1-40" target="SjJ99Vo2uQfso_Y1eYd1-48" edge="1">
          <mxGeometry relative="1" as="geometry">
            <mxPoint x="350" y="684.5" as="targetPoint" />
          </mxGeometry>
        </mxCell>
        <mxCell id="SjJ99Vo2uQfso_Y1eYd1-40" value="Gibt es Änderungen?" style="rhombus;whiteSpace=wrap;html=1;" parent="1" vertex="1">
          <mxGeometry x="190" y="544.5" width="139" height="80" as="geometry" />
        </mxCell>
        <mxCell id="SjJ99Vo2uQfso_Y1eYd1-65" style="edgeStyle=orthogonalEdgeStyle;rounded=0;orthogonalLoop=1;jettySize=auto;html=1;entryX=0.5;entryY=0;entryDx=0;entryDy=0;" parent="1" source="SjJ99Vo2uQfso_Y1eYd1-42" target="SjJ99Vo2uQfso_Y1eYd1-63" edge="1">
          <mxGeometry relative="1" as="geometry" />
        </mxCell>
        <mxCell id="SjJ99Vo2uQfso_Y1eYd1-42" value="Join two or more development histories together" style="rounded=0;whiteSpace=wrap;html=1;" parent="1" vertex="1">
          <mxGeometry x="100" y="694.5" width="120" height="60" as="geometry" />
        </mxCell>
        <mxCell id="SjJ99Vo2uQfso_Y1eYd1-44" value="git merge &amp;lt;remote&amp;gt;/&amp;lt;branch&amp;gt;" style="text;html=1;align=center;verticalAlign=middle;whiteSpace=wrap;rounded=0;" parent="1" vertex="1">
          <mxGeometry x="20" y="709.5" width="60" height="30" as="geometry" />
        </mxCell>
        <mxCell id="SjJ99Vo2uQfso_Y1eYd1-48" value="print &#39;no changes in the remote repo&#39;" style="shape=parallelogram;perimeter=parallelogramPerimeter;whiteSpace=wrap;html=1;fixedSize=1;" parent="1" vertex="1">
          <mxGeometry x="290" y="694.5" width="150" height="60" as="geometry" />
        </mxCell>
        <mxCell id="SjJ99Vo2uQfso_Y1eYd1-62" style="edgeStyle=orthogonalEdgeStyle;rounded=0;orthogonalLoop=1;jettySize=auto;html=1;entryX=0.5;entryY=0;entryDx=0;entryDy=0;" parent="1" source="SjJ99Vo2uQfso_Y1eYd1-55" target="SjJ99Vo2uQfso_Y1eYd1-2" edge="1">
          <mxGeometry relative="1" as="geometry" />
        </mxCell>
        <mxCell id="SjJ99Vo2uQfso_Y1eYd1-55" value="Add remote connection to target repository" style="rounded=0;whiteSpace=wrap;html=1;" parent="1" vertex="1">
          <mxGeometry x="199" y="310" width="120" height="60" as="geometry" />
        </mxCell>
        <mxCell id="SjJ99Vo2uQfso_Y1eYd1-56" value="git remote add &amp;lt;name&amp;gt; &amp;lt;repository&amp;gt;" style="text;html=1;align=center;verticalAlign=middle;whiteSpace=wrap;rounded=0;" parent="1" vertex="1">
          <mxGeometry x="100" y="325" width="70" height="30" as="geometry" />
        </mxCell>
        <mxCell id="SjJ99Vo2uQfso_Y1eYd1-61" style="edgeStyle=orthogonalEdgeStyle;rounded=0;orthogonalLoop=1;jettySize=auto;html=1;entryX=0.5;entryY=0;entryDx=0;entryDy=0;" parent="1" source="SjJ99Vo2uQfso_Y1eYd1-58" target="SjJ99Vo2uQfso_Y1eYd1-55" edge="1">
          <mxGeometry relative="1" as="geometry" />
        </mxCell>
        <mxCell id="SjJ99Vo2uQfso_Y1eYd1-58" value="change into local folder of the repository" style="rounded=0;whiteSpace=wrap;html=1;" parent="1" vertex="1">
          <mxGeometry x="199" y="190" width="120" height="60" as="geometry" />
        </mxCell>
        <mxCell id="SjJ99Vo2uQfso_Y1eYd1-59" value="cd local_repo_folder" style="text;html=1;align=center;verticalAlign=middle;whiteSpace=wrap;rounded=0;" parent="1" vertex="1">
          <mxGeometry x="60" y="200" width="120" height="30" as="geometry" />
        </mxCell>
        <mxCell id="SjJ99Vo2uQfso_Y1eYd1-67" value="" style="edgeStyle=orthogonalEdgeStyle;rounded=0;orthogonalLoop=1;jettySize=auto;html=1;" parent="1" source="SjJ99Vo2uQfso_Y1eYd1-63" target="SjJ99Vo2uQfso_Y1eYd1-66" edge="1">
          <mxGeometry relative="1" as="geometry" />
        </mxCell>
        <mxCell id="SjJ99Vo2uQfso_Y1eYd1-63" value="Update remote refs along with associated objects to existing target repo" style="rounded=0;whiteSpace=wrap;html=1;" parent="1" vertex="1">
          <mxGeometry x="100" y="825" width="120" height="60" as="geometry" />
        </mxCell>
        <mxCell id="SjJ99Vo2uQfso_Y1eYd1-64" value="&lt;div&gt;git push &amp;lt;target&amp;nbsp;remote&amp;gt;&lt;/div&gt;" style="text;html=1;align=center;verticalAlign=middle;whiteSpace=wrap;rounded=0;" parent="1" vertex="1">
          <mxGeometry x="20" y="840" width="60" height="30" as="geometry" />
        </mxCell>
        <mxCell id="SjJ99Vo2uQfso_Y1eYd1-71" style="edgeStyle=orthogonalEdgeStyle;rounded=0;orthogonalLoop=1;jettySize=auto;html=1;exitX=1;exitY=1;exitDx=0;exitDy=0;" parent="1" source="SjJ99Vo2uQfso_Y1eYd1-66" target="SjJ99Vo2uQfso_Y1eYd1-69" edge="1">
          <mxGeometry relative="1" as="geometry">
            <Array as="points">
              <mxPoint x="250" y="983" />
            </Array>
          </mxGeometry>
        </mxCell>
        <mxCell id="SjJ99Vo2uQfso_Y1eYd1-72" value="yes" style="edgeLabel;html=1;align=center;verticalAlign=middle;resizable=0;points=[];" parent="SjJ99Vo2uQfso_Y1eYd1-71" vertex="1" connectable="0">
          <mxGeometry x="0.2462" y="3" relative="1" as="geometry">
            <mxPoint as="offset" />
          </mxGeometry>
        </mxCell>
        <mxCell id="SjJ99Vo2uQfso_Y1eYd1-73" style="edgeStyle=orthogonalEdgeStyle;rounded=0;orthogonalLoop=1;jettySize=auto;html=1;exitX=0;exitY=1;exitDx=0;exitDy=0;entryX=0;entryY=0.5;entryDx=0;entryDy=0;" parent="1" source="SjJ99Vo2uQfso_Y1eYd1-66" target="SjJ99Vo2uQfso_Y1eYd1-74" edge="1">
          <mxGeometry relative="1" as="geometry">
            <mxPoint x="120" y="1370" as="targetPoint" />
          </mxGeometry>
        </mxCell>
        <mxCell id="SjJ99Vo2uQfso_Y1eYd1-66" value="username and password required?" style="rhombus;whiteSpace=wrap;html=1;" parent="1" vertex="1">
          <mxGeometry x="85" y="930" width="150" height="70" as="geometry" />
        </mxCell>
        <mxCell id="SjJ99Vo2uQfso_Y1eYd1-68" value="" style="edgeStyle=orthogonalEdgeStyle;rounded=0;orthogonalLoop=1;jettySize=auto;html=1;" parent="1" source="SjJ99Vo2uQfso_Y1eYd1-69" target="SjJ99Vo2uQfso_Y1eYd1-70" edge="1">
          <mxGeometry relative="1" as="geometry" />
        </mxCell>
        <mxCell id="SjJ99Vo2uQfso_Y1eYd1-69" value="username" style="shape=parallelogram;perimeter=parallelogramPerimeter;whiteSpace=wrap;html=1;fixedSize=1;" parent="1" vertex="1">
          <mxGeometry x="190" y="1060" width="120" height="60" as="geometry" />
        </mxCell>
        <mxCell id="SjJ99Vo2uQfso_Y1eYd1-75" style="edgeStyle=orthogonalEdgeStyle;rounded=0;orthogonalLoop=1;jettySize=auto;html=1;entryX=1;entryY=0;entryDx=0;entryDy=0;" parent="1" source="SjJ99Vo2uQfso_Y1eYd1-70" target="SjJ99Vo2uQfso_Y1eYd1-74" edge="1">
          <mxGeometry relative="1" as="geometry" />
        </mxCell>
        <mxCell id="SjJ99Vo2uQfso_Y1eYd1-70" value="password" style="shape=parallelogram;perimeter=parallelogramPerimeter;whiteSpace=wrap;html=1;fixedSize=1;" parent="1" vertex="1">
          <mxGeometry x="190" y="1180" width="120" height="60" as="geometry" />
        </mxCell>
        <mxCell id="SjJ99Vo2uQfso_Y1eYd1-74" value="End" style="ellipse;whiteSpace=wrap;html=1;" parent="1" vertex="1">
          <mxGeometry x="140" y="1390" width="120" height="80" as="geometry" />
        </mxCell>
        <mxCell id="v1fekIy8P3kQK3e0y9ms-58" value="" style="edgeStyle=orthogonalEdgeStyle;rounded=0;orthogonalLoop=1;jettySize=auto;html=1;" edge="1" parent="1" source="v1fekIy8P3kQK3e0y9ms-1" target="v1fekIy8P3kQK3e0y9ms-57">
          <mxGeometry relative="1" as="geometry" />
        </mxCell>
        <mxCell id="v1fekIy8P3kQK3e0y9ms-1" value="Start" style="ellipse;whiteSpace=wrap;html=1;" vertex="1" parent="1">
          <mxGeometry x="1460" y="10" width="120" height="60" as="geometry" />
        </mxCell>
        <mxCell id="v1fekIy8P3kQK3e0y9ms-6" style="edgeStyle=orthogonalEdgeStyle;rounded=0;orthogonalLoop=1;jettySize=auto;html=1;entryX=0.5;entryY=0;entryDx=0;entryDy=0;" edge="1" parent="1" source="v1fekIy8P3kQK3e0y9ms-7" target="v1fekIy8P3kQK3e0y9ms-32">
          <mxGeometry relative="1" as="geometry" />
        </mxCell>
        <mxCell id="v1fekIy8P3kQK3e0y9ms-7" value="Download objects and refs from origin repository, prune unreachable objects" style="rounded=0;whiteSpace=wrap;html=1;" vertex="1" parent="1">
          <mxGeometry x="1289.5" y="464.5" width="120" height="60" as="geometry" />
        </mxCell>
        <mxCell id="v1fekIy8P3kQK3e0y9ms-11" value="" style="edgeStyle=orthogonalEdgeStyle;rounded=0;orthogonalLoop=1;jettySize=auto;html=1;" edge="1" parent="1" source="v1fekIy8P3kQK3e0y9ms-12" target="v1fekIy8P3kQK3e0y9ms-14">
          <mxGeometry relative="1" as="geometry" />
        </mxCell>
        <mxCell id="v1fekIy8P3kQK3e0y9ms-12" value="username" style="shape=parallelogram;perimeter=parallelogramPerimeter;whiteSpace=wrap;html=1;fixedSize=1;" vertex="1" parent="1">
          <mxGeometry x="1730" y="310" width="120" height="60" as="geometry" />
        </mxCell>
        <mxCell id="v1fekIy8P3kQK3e0y9ms-13" style="edgeStyle=orthogonalEdgeStyle;rounded=0;orthogonalLoop=1;jettySize=auto;html=1;entryX=0.5;entryY=0;entryDx=0;entryDy=0;" edge="1" parent="1" source="v1fekIy8P3kQK3e0y9ms-14" target="v1fekIy8P3kQK3e0y9ms-19">
          <mxGeometry relative="1" as="geometry" />
        </mxCell>
        <mxCell id="v1fekIy8P3kQK3e0y9ms-14" value="&lt;div&gt;password or&amp;nbsp;&lt;/div&gt;&lt;div&gt;access token&lt;/div&gt;" style="shape=parallelogram;perimeter=parallelogramPerimeter;whiteSpace=wrap;html=1;fixedSize=1;" vertex="1" parent="1">
          <mxGeometry x="1730" y="430" width="120" height="60" as="geometry" />
        </mxCell>
        <mxCell id="v1fekIy8P3kQK3e0y9ms-15" value="" style="edgeStyle=orthogonalEdgeStyle;rounded=0;orthogonalLoop=1;jettySize=auto;html=1;exitX=1;exitY=1;exitDx=0;exitDy=0;" edge="1" parent="1" source="v1fekIy8P3kQK3e0y9ms-19" target="v1fekIy8P3kQK3e0y9ms-25">
          <mxGeometry relative="1" as="geometry" />
        </mxCell>
        <mxCell id="v1fekIy8P3kQK3e0y9ms-16" value="yes" style="edgeLabel;html=1;align=center;verticalAlign=middle;resizable=0;points=[];" vertex="1" connectable="0" parent="v1fekIy8P3kQK3e0y9ms-15">
          <mxGeometry x="0.2649" y="1" relative="1" as="geometry">
            <mxPoint as="offset" />
          </mxGeometry>
        </mxCell>
        <mxCell id="v1fekIy8P3kQK3e0y9ms-17" style="edgeStyle=orthogonalEdgeStyle;rounded=0;orthogonalLoop=1;jettySize=auto;html=1;exitX=0;exitY=0.5;exitDx=0;exitDy=0;entryX=1;entryY=0.5;entryDx=0;entryDy=0;" edge="1" parent="1" source="v1fekIy8P3kQK3e0y9ms-19" target="v1fekIy8P3kQK3e0y9ms-41">
          <mxGeometry relative="1" as="geometry" />
        </mxCell>
        <mxCell id="v1fekIy8P3kQK3e0y9ms-18" value="no" style="edgeLabel;html=1;align=center;verticalAlign=middle;resizable=0;points=[];" vertex="1" connectable="0" parent="v1fekIy8P3kQK3e0y9ms-17">
          <mxGeometry x="-0.1543" y="-2" relative="1" as="geometry">
            <mxPoint as="offset" />
          </mxGeometry>
        </mxCell>
        <mxCell id="v1fekIy8P3kQK3e0y9ms-19" value="remote access denied?" style="rhombus;whiteSpace=wrap;html=1;" vertex="1" parent="1">
          <mxGeometry x="1570" y="564.5" width="190" height="80" as="geometry" />
        </mxCell>
        <mxCell id="v1fekIy8P3kQK3e0y9ms-20" style="edgeStyle=orthogonalEdgeStyle;rounded=0;orthogonalLoop=1;jettySize=auto;html=1;exitX=1;exitY=1;exitDx=0;exitDy=0;" edge="1" parent="1" source="v1fekIy8P3kQK3e0y9ms-24" target="v1fekIy8P3kQK3e0y9ms-12">
          <mxGeometry relative="1" as="geometry">
            <Array as="points">
              <mxPoint x="1790" y="250" />
            </Array>
          </mxGeometry>
        </mxCell>
        <mxCell id="v1fekIy8P3kQK3e0y9ms-21" value="yes" style="edgeLabel;html=1;align=center;verticalAlign=middle;resizable=0;points=[];" vertex="1" connectable="0" parent="v1fekIy8P3kQK3e0y9ms-20">
          <mxGeometry x="0.1826" y="-1" relative="1" as="geometry">
            <mxPoint as="offset" />
          </mxGeometry>
        </mxCell>
        <mxCell id="v1fekIy8P3kQK3e0y9ms-22" style="edgeStyle=orthogonalEdgeStyle;rounded=0;orthogonalLoop=1;jettySize=auto;html=1;exitX=0;exitY=0.5;exitDx=0;exitDy=0;entryX=1;entryY=0.5;entryDx=0;entryDy=0;" edge="1" parent="1" source="v1fekIy8P3kQK3e0y9ms-24" target="v1fekIy8P3kQK3e0y9ms-41">
          <mxGeometry relative="1" as="geometry">
            <mxPoint x="1560" y="590" as="targetPoint" />
          </mxGeometry>
        </mxCell>
        <mxCell id="v1fekIy8P3kQK3e0y9ms-23" value="no" style="edgeLabel;html=1;align=center;verticalAlign=middle;resizable=0;points=[];" vertex="1" connectable="0" parent="v1fekIy8P3kQK3e0y9ms-22">
          <mxGeometry x="-0.215" y="5" relative="1" as="geometry">
            <mxPoint x="-9" y="-15" as="offset" />
          </mxGeometry>
        </mxCell>
        <mxCell id="v1fekIy8P3kQK3e0y9ms-24" value="Username and password required?" style="rhombus;whiteSpace=wrap;html=1;" vertex="1" parent="1">
          <mxGeometry x="1600" y="190" width="180" height="80" as="geometry" />
        </mxCell>
        <mxCell id="v1fekIy8P3kQK3e0y9ms-25" value="print &#39;Access denied&#39;" style="shape=parallelogram;perimeter=parallelogramPerimeter;whiteSpace=wrap;html=1;fixedSize=1;" vertex="1" parent="1">
          <mxGeometry x="1650" y="729.5" width="160" height="60" as="geometry" />
        </mxCell>
        <mxCell id="v1fekIy8P3kQK3e0y9ms-26" value="origin repo: GitLab" style="text;html=1;align=center;verticalAlign=middle;whiteSpace=wrap;rounded=0;" vertex="1" parent="1">
          <mxGeometry x="1110" y="40" width="135" height="30" as="geometry" />
        </mxCell>
        <mxCell id="v1fekIy8P3kQK3e0y9ms-27" value="target repo: Gitea" style="text;html=1;align=center;verticalAlign=middle;whiteSpace=wrap;rounded=0;" vertex="1" parent="1">
          <mxGeometry x="1120" y="70" width="120" height="30" as="geometry" />
        </mxCell>
        <mxCell id="v1fekIy8P3kQK3e0y9ms-28" value="git fetch -p origin" style="text;html=1;align=center;verticalAlign=middle;whiteSpace=wrap;rounded=0;" vertex="1" parent="1">
          <mxGeometry x="1180" y="479.5" width="90" height="30" as="geometry" />
        </mxCell>
        <mxCell id="v1fekIy8P3kQK3e0y9ms-29" style="edgeStyle=orthogonalEdgeStyle;rounded=0;orthogonalLoop=1;jettySize=auto;html=1;exitX=0;exitY=0.5;exitDx=0;exitDy=0;entryX=0.5;entryY=0;entryDx=0;entryDy=0;" edge="1" parent="1" source="v1fekIy8P3kQK3e0y9ms-32" target="v1fekIy8P3kQK3e0y9ms-44">
          <mxGeometry relative="1" as="geometry">
            <Array as="points">
              <mxPoint x="1250" y="604" />
            </Array>
            <mxPoint x="1250" y="714.5" as="targetPoint" />
          </mxGeometry>
        </mxCell>
        <mxCell id="v1fekIy8P3kQK3e0y9ms-30" value="ja" style="edgeLabel;html=1;align=center;verticalAlign=middle;resizable=0;points=[];" vertex="1" connectable="0" parent="v1fekIy8P3kQK3e0y9ms-29">
          <mxGeometry x="-0.2145" y="-3" relative="1" as="geometry">
            <mxPoint x="-19" y="13" as="offset" />
          </mxGeometry>
        </mxCell>
        <mxCell id="v1fekIy8P3kQK3e0y9ms-31" value="nein" style="edgeStyle=orthogonalEdgeStyle;rounded=0;orthogonalLoop=1;jettySize=auto;html=1;exitX=1;exitY=0.5;exitDx=0;exitDy=0;entryX=0.5;entryY=0;entryDx=0;entryDy=0;" edge="1" parent="1" source="v1fekIy8P3kQK3e0y9ms-32" target="v1fekIy8P3kQK3e0y9ms-36">
          <mxGeometry relative="1" as="geometry">
            <mxPoint x="1440" y="704.5" as="targetPoint" />
          </mxGeometry>
        </mxCell>
        <mxCell id="v1fekIy8P3kQK3e0y9ms-32" value="Gibt es Änderungen?" style="rhombus;whiteSpace=wrap;html=1;" vertex="1" parent="1">
          <mxGeometry x="1280" y="564.5" width="139" height="80" as="geometry" />
        </mxCell>
        <mxCell id="v1fekIy8P3kQK3e0y9ms-36" value="print &#39;no changes in the remote repo&#39;" style="shape=parallelogram;perimeter=parallelogramPerimeter;whiteSpace=wrap;html=1;fixedSize=1;" vertex="1" parent="1">
          <mxGeometry x="1380" y="714.5" width="150" height="60" as="geometry" />
        </mxCell>
        <mxCell id="v1fekIy8P3kQK3e0y9ms-37" style="edgeStyle=orthogonalEdgeStyle;rounded=0;orthogonalLoop=1;jettySize=auto;html=1;entryX=0.5;entryY=0;entryDx=0;entryDy=0;" edge="1" parent="1" source="v1fekIy8P3kQK3e0y9ms-38" target="v1fekIy8P3kQK3e0y9ms-7">
          <mxGeometry relative="1" as="geometry" />
        </mxCell>
        <mxCell id="v1fekIy8P3kQK3e0y9ms-38" value="Set push location to mirror (target) repository" style="rounded=0;whiteSpace=wrap;html=1;" vertex="1" parent="1">
          <mxGeometry x="1289" y="330" width="120" height="60" as="geometry" />
        </mxCell>
        <mxCell id="v1fekIy8P3kQK3e0y9ms-40" style="edgeStyle=orthogonalEdgeStyle;rounded=0;orthogonalLoop=1;jettySize=auto;html=1;entryX=0.5;entryY=0;entryDx=0;entryDy=0;" edge="1" parent="1" source="v1fekIy8P3kQK3e0y9ms-41" target="v1fekIy8P3kQK3e0y9ms-38">
          <mxGeometry relative="1" as="geometry" />
        </mxCell>
        <mxCell id="v1fekIy8P3kQK3e0y9ms-41" value="change into local folder of the repository" style="rounded=0;whiteSpace=wrap;html=1;" vertex="1" parent="1">
          <mxGeometry x="1289" y="210" width="120" height="60" as="geometry" />
        </mxCell>
        <mxCell id="v1fekIy8P3kQK3e0y9ms-42" value="cd local_repo_folder" style="text;html=1;align=center;verticalAlign=middle;whiteSpace=wrap;rounded=0;" vertex="1" parent="1">
          <mxGeometry x="1150" y="220" width="120" height="30" as="geometry" />
        </mxCell>
        <mxCell id="v1fekIy8P3kQK3e0y9ms-43" value="" style="edgeStyle=orthogonalEdgeStyle;rounded=0;orthogonalLoop=1;jettySize=auto;html=1;" edge="1" parent="1" source="v1fekIy8P3kQK3e0y9ms-44" target="v1fekIy8P3kQK3e0y9ms-49">
          <mxGeometry relative="1" as="geometry" />
        </mxCell>
        <mxCell id="v1fekIy8P3kQK3e0y9ms-44" value="Update remote refs along with associated objects to existing target repo" style="rounded=0;whiteSpace=wrap;html=1;" vertex="1" parent="1">
          <mxGeometry x="1190" y="729.5" width="120" height="60" as="geometry" />
        </mxCell>
        <mxCell id="v1fekIy8P3kQK3e0y9ms-45" value="&lt;div&gt;git push --mirror&lt;/div&gt;" style="text;html=1;align=center;verticalAlign=middle;whiteSpace=wrap;rounded=0;" vertex="1" parent="1">
          <mxGeometry x="1070" y="744.5" width="100" height="30" as="geometry" />
        </mxCell>
        <mxCell id="v1fekIy8P3kQK3e0y9ms-46" style="edgeStyle=orthogonalEdgeStyle;rounded=0;orthogonalLoop=1;jettySize=auto;html=1;exitX=1;exitY=1;exitDx=0;exitDy=0;" edge="1" parent="1" source="v1fekIy8P3kQK3e0y9ms-49" target="v1fekIy8P3kQK3e0y9ms-51">
          <mxGeometry relative="1" as="geometry">
            <Array as="points">
              <mxPoint x="1340" y="887.5" />
            </Array>
          </mxGeometry>
        </mxCell>
        <mxCell id="v1fekIy8P3kQK3e0y9ms-47" value="yes" style="edgeLabel;html=1;align=center;verticalAlign=middle;resizable=0;points=[];" vertex="1" connectable="0" parent="v1fekIy8P3kQK3e0y9ms-46">
          <mxGeometry x="0.2462" y="3" relative="1" as="geometry">
            <mxPoint as="offset" />
          </mxGeometry>
        </mxCell>
        <mxCell id="v1fekIy8P3kQK3e0y9ms-48" style="edgeStyle=orthogonalEdgeStyle;rounded=0;orthogonalLoop=1;jettySize=auto;html=1;exitX=0;exitY=1;exitDx=0;exitDy=0;entryX=0;entryY=0.5;entryDx=0;entryDy=0;" edge="1" parent="1" source="v1fekIy8P3kQK3e0y9ms-49" target="v1fekIy8P3kQK3e0y9ms-54">
          <mxGeometry relative="1" as="geometry">
            <mxPoint x="1210" y="1274.5" as="targetPoint" />
          </mxGeometry>
        </mxCell>
        <mxCell id="v1fekIy8P3kQK3e0y9ms-49" value="username and password required?" style="rhombus;whiteSpace=wrap;html=1;" vertex="1" parent="1">
          <mxGeometry x="1175" y="834.5" width="150" height="70" as="geometry" />
        </mxCell>
        <mxCell id="v1fekIy8P3kQK3e0y9ms-50" value="" style="edgeStyle=orthogonalEdgeStyle;rounded=0;orthogonalLoop=1;jettySize=auto;html=1;" edge="1" parent="1" source="v1fekIy8P3kQK3e0y9ms-51" target="v1fekIy8P3kQK3e0y9ms-53">
          <mxGeometry relative="1" as="geometry" />
        </mxCell>
        <mxCell id="v1fekIy8P3kQK3e0y9ms-51" value="username" style="shape=parallelogram;perimeter=parallelogramPerimeter;whiteSpace=wrap;html=1;fixedSize=1;" vertex="1" parent="1">
          <mxGeometry x="1280" y="964.5" width="120" height="60" as="geometry" />
        </mxCell>
        <mxCell id="v1fekIy8P3kQK3e0y9ms-52" style="edgeStyle=orthogonalEdgeStyle;rounded=0;orthogonalLoop=1;jettySize=auto;html=1;entryX=1;entryY=0;entryDx=0;entryDy=0;" edge="1" parent="1" source="v1fekIy8P3kQK3e0y9ms-53" target="v1fekIy8P3kQK3e0y9ms-54">
          <mxGeometry relative="1" as="geometry" />
        </mxCell>
        <mxCell id="v1fekIy8P3kQK3e0y9ms-53" value="password" style="shape=parallelogram;perimeter=parallelogramPerimeter;whiteSpace=wrap;html=1;fixedSize=1;" vertex="1" parent="1">
          <mxGeometry x="1280" y="1084.5" width="120" height="60" as="geometry" />
        </mxCell>
        <mxCell id="v1fekIy8P3kQK3e0y9ms-54" value="End" style="ellipse;whiteSpace=wrap;html=1;" vertex="1" parent="1">
          <mxGeometry x="1230" y="1294.5" width="120" height="80" as="geometry" />
        </mxCell>
        <mxCell id="v1fekIy8P3kQK3e0y9ms-56" value="&lt;pre&gt;&lt;code class=&quot;hljs language-shell&quot;&gt;git clone --mirror &amp;lt;origin-repo&amp;gt; &lt;/code&gt;&amp;lt;directory&amp;gt;&lt;/pre&gt;" style="text;html=1;align=center;verticalAlign=middle;whiteSpace=wrap;rounded=0;" vertex="1" parent="1">
          <mxGeometry x="1590" y="105" width="290" height="55" as="geometry" />
        </mxCell>
        <mxCell id="v1fekIy8P3kQK3e0y9ms-61" style="edgeStyle=orthogonalEdgeStyle;rounded=0;orthogonalLoop=1;jettySize=auto;html=1;entryX=0.5;entryY=0;entryDx=0;entryDy=0;" edge="1" parent="1" source="v1fekIy8P3kQK3e0y9ms-57" target="v1fekIy8P3kQK3e0y9ms-24">
          <mxGeometry relative="1" as="geometry">
            <Array as="points">
              <mxPoint x="1520" y="190" />
            </Array>
          </mxGeometry>
        </mxCell>
        <mxCell id="v1fekIy8P3kQK3e0y9ms-57" value="Create a bare mirrored clone of the repository" style="rounded=0;whiteSpace=wrap;html=1;" vertex="1" parent="1">
          <mxGeometry x="1460" y="100" width="120" height="60" as="geometry" />
        </mxCell>
        <mxCell id="v1fekIy8P3kQK3e0y9ms-59" value="token: read repository access" style="text;html=1;align=center;verticalAlign=middle;whiteSpace=wrap;rounded=0;" vertex="1" parent="1">
          <mxGeometry x="1640" y="70" width="100" height="30" as="geometry" />
        </mxCell>
        <mxCell id="v1fekIy8P3kQK3e0y9ms-63" value="&lt;pre&gt;&lt;code class=&quot;hljs language-shell&quot;&gt;git remote set-url &lt;br&gt;--push origin &lt;br&gt;&amp;lt;target-repo&amp;gt;&lt;/code&gt;&lt;/pre&gt;" style="text;html=1;align=center;verticalAlign=middle;whiteSpace=wrap;rounded=0;" vertex="1" parent="1">
          <mxGeometry x="1137.5" y="335" width="145" height="50" as="geometry" />
        </mxCell>
      </root>
    </mxGraphModel>
  </diagram>
</mxfile>
